<svg xmlns="http://www.w3.org/2000/svg" xmlns:xlink="http://www.w3.org/1999/xlink" width="40" height="40" viewBox="0 0 40 40">
    <defs>
        <filter id="a" width="126.6%" height="126.6%" x="-13.3%" y="-11.7%" filterUnits="objectBoundingBox">
            <feOffset dy=".5" in="SourceAlpha" result="shadowOffsetOuter1"/>
            <feGaussianBlur in="shadowOffsetOuter1" result="shadowBlurOuter1" stdDeviation="1"/>
            <feColorMatrix in="shadowBlurOuter1" result="shadowMatrixOuter1" values="0 0 0 0 0 0 0 0 0 0 0 0 0 0 0 0 0 0 0.5 0"/>
            <feMerge>
                <feMergeNode in="shadowMatrixOuter1"/>
                <feMergeNode in="SourceGraphic"/>
            </feMerge>
        </filter>
        <path id="b" d="M0 0h10v22H0z"/>
    </defs>
    <g fill="none" fill-rule="evenodd" filter="url(#a)" transform="translate(3 3)">
        <circle cx="16" cy="16" r="16" fill="#323031" stroke="#FFF" stroke-width="2"/>
        <g transform="translate(11 5)">
            <mask id="c" fill="#fff">
                <use xlink:href="#b"/>
            </mask>
            <path fill="#FFF" d="M8.964 14.448c-.141.452-.43.654-1.247 1.173-.141.09-.299.19-.464.298-.098-.979-.18-1.76-.215-2.017-.117-.887-.565-1.957-1.846-1.957-1.282 0-1.567 1.07-1.685 1.957a130.71 130.71 0 0 0-.278 2.647l-.404-.296c-1.155-.842-1.587-1.157-1.79-1.805-.303-.97.717-10.153 1.709-13.034.05-.143.098-.155.154-.169.787-.191 2.024-.24 2.173-.244.132.005 1.241.052 2.031.244.056.014.104.026.154.169.991 2.88 2.012 12.064 1.708 13.034M8.188 1.085C8.04.653 7.745.372 7.333.272 6.399.045 5.14.002 5.088 0l-.016.5-.014-.5c-.06.002-1.456.045-2.391.272-.411.1-.707.381-.856.813C.843 3.898-.345 13.35.094 14.75c.302.963.92 1.415 2.153 2.314.257.188.547.4.87.642-.194 2.054-.375 4.176-.327 4.293h4.965c.054-.13-.175-2.721-.39-4.955.329-.226.625-.416.877-.576.846-.538 1.406-.893 1.664-1.718.439-1.402-.75-10.853-1.718-13.666" mask="url(#c)"/>
        </g>
    </g>
</svg>
